<?xml version="1.0" encoding="UTF-8" standalone="no"?>
<svg
   width="883.42114"
   height="329.08377"
   version="1.1"
   id="svg71"
   xmlns:xlink="http://www.w3.org/1999/xlink"
   xmlns="http://www.w3.org/2000/svg"
   xmlns:svg="http://www.w3.org/2000/svg"
   xmlns:lucid="lucid">
  <defs
     id="defs72" />
  <g
     transform="translate(-855.76779,-129)"
     lucid:page-tab-id="0_0"
     id="g71">
    <path
       d="m 1354.189,205.35472 a 6,6 0 0 1 6,-6 h 148 a 6,6 0 0 1 6,6 v 108 a 6,6 0 0 1 -6,6 h -148 a 6,6 0 0 1 -6,-6 z"
       stroke="#3a414a"
       stroke-width="2"
       fill="#ffffff"
       id="path1" />
    <use
       xlink:href="#a"
       transform="translate(1410.4802,268.8825)"
       id="use1" />
    <path
       d="m 1515.7648,259.35472 h 48.9006"
       stroke="#3a414a"
       fill="none"
       id="path2"
       style="stroke-width:0.901623" />
    <path
       d="m 1515.689,259.83472 h -0.5 v -0.96 h 0.5 z"
       stroke="#3a414a"
       stroke-width="0.05"
       fill="#3a414a"
       id="path3" />
    <path
       d="m 1576.4745,259.35472 -11.409,4.70436 v -9.40872 z"
       stroke="#3a414a"
       fill="#3a414a"
       id="path4"
       style="stroke-width:0.901623" />
    <path
       d="m 1692.859,214.02472 c 25.03,0 45.33,20.3 45.33,45.33 0,25.04 -20.3,45.33 -45.33,45.33 h -69.34 c -25.03,0 -45.33,-20.3 -45.33,-45.33 0,-25.04 20.3,-45.33 45.33,-45.33 z"
       stroke="#3a414a"
       stroke-width="2"
       fill="#ffffff"
       id="path5" />
    <use
       xlink:href="#b"
       transform="translate(1620.1921,241.08172)"
       id="use5" />
    <use
       xlink:href="#c"
       transform="translate(1597.8889,267.96974)"
       id="use6" />
    <use
       xlink:href="#d"
       transform="translate(1626.453,294.85776)"
       id="use7" />
    <path
       d="m 884,206 a 6,6 0 0 1 6,-6 h 148 a 6,6 0 0 1 6,6 v 108 a 6,6 0 0 1 -6,6 H 890 a 6,6 0 0 1 -6,-6 z"
       stroke="#3a414a"
       stroke-width="2"
       fill="#ffffff"
       id="path7" />
    <path
       d="m 1044.8781,260 h 84.2064"
       stroke="#3a414a"
       fill="none"
       id="path8"
       style="stroke-width:0.78585" />
    <path
       d="m 1045.5,260.48 h -0.5 v -0.96 h 0.5 z"
       stroke="#3a414a"
       stroke-width="0.05"
       fill="#3a414a"
       id="path9" />
    <path
       d="m 1137.8918,260 -8.5089,4.79186 v -9.58372 z"
       stroke="#3a414a"
       fill="#3a414a"
       id="path10"
       style="stroke-width:0.78585" />
    <path
       d="m 1140,136 a 6,6 0 0 1 6,-6 h 8 a 6,6 0 0 1 6,6 v 248 a 6,6 0 0 1 -6,6 h -8 a 6,6 0 0 1 -6,-6 z"
       stroke="#3a414a"
       stroke-width="2"
       fill="#ffffff"
       id="path11" />
    <path
       d="m 1289.159,259.35472 h 47.64"
       stroke="#3a414a"
       fill="none"
       id="path12" />
    <path
       d="m 1289.169,259.83472 h -0.5 v -0.96 h 0.5 z"
       stroke="#3a414a"
       stroke-width="0.05"
       fill="#3a414a"
       id="path13" />
    <path
       d="m 1351.569,259.35472 -14.27,4.63 0.02,-9.26 z"
       stroke="#3a414a"
       fill="#3a414a"
       id="path14" />
    <path
       d="m 680,266 a 6,6 0 0 1 6,-6 h 228 a 6,6 0 0 1 6,6 v 48 a 6,6 0 0 1 -6,6 H 686 a 6,6 0 0 1 -6,-6 z"
       fill="none"
       id="path15" />
    <use
       xlink:href="#e"
       transform="translate(854.72613,272.08377)"
       id="use15" />
    <path
       d="m 780,316 a 6,6 0 0 1 6,-6 h 228 a 6,6 0 0 1 6,6 v 48 a 6,6 0 0 1 -6,6 H 786 a 6,6 0 0 1 -6,-6 z"
       fill="none"
       id="path16" />
    <use
       xlink:href="#f"
       transform="translate(944.43077,348.08377)"
       id="use16" />
    <path
       d="m 780,156 a 6,6 0 0 1 6,-6 h 228 a 6,6 0 0 1 6,6 v 48 a 6,6 0 0 1 -6,6 H 786 a 6,6 0 0 1 -6,-6 z"
       fill="none"
       id="path17" />
    <use
       xlink:href="#g"
       transform="translate(901.44575,188.08377)"
       id="use17" />
    <use
       xlink:href="#h"
       transform="translate(996.96441,188.08377)"
       id="use18" />
    <path
       d="m 1180,136 a 6,6 0 0 1 6,-6 h 8 a 6,6 0 0 1 6,6 v 248 a 6,6 0 0 1 -6,6 h -8 a 6,6 0 0 1 -6,-6 z"
       stroke="#3a414a"
       stroke-width="2"
       fill="#ffffff"
       id="path18" />
    <g
       id="g74">
      <path
         d="m 1224.9092,260.70828 c 0,1.54023 -0.8468,2.78708 -1.8966,2.78708 -1.0441,0 -1.8909,-1.24685 -1.8909,-2.78708 0,-1.53534 0.8468,-2.78708 1.8909,-2.78708 1.044,0 1.8966,1.25174 1.8966,2.78708 z m 11.6005,-0.32271 c 0,1.53045 -0.8469,2.7773 -1.8967,2.7773 -1.0441,0 -1.8909,-1.24685 -1.8909,-2.78708 0,-1.53045 0.8468,-2.7773 1.8909,-2.7773 1.044,0 1.8967,1.24685 1.8967,2.78708 z m 11.6004,0.32271 c 0,1.54023 -0.8468,2.78708 -1.8967,2.78708 -1.044,0 -1.8909,-1.24685 -1.8909,-2.78708 0,-1.53534 0.8469,-2.78708 1.8909,-2.78708 1.0441,0 1.8967,1.25174 1.8967,2.78708 z"
         stroke="#000000"
         stroke-width="2"
         id="path19" />
    </g>
    <path
       d="m 1267.659,136.55472 a 6,6 0 0 1 6,-6 h 8 a 6,6 0 0 1 6,6 v 248 a 6,6 0 0 1 -6,6 h -8 a 6,6 0 0 1 -6,-6 z"
       stroke="#3a414a"
       stroke-width="2"
       fill="#ffffff"
       id="path20" />
    <path
       d="m 1030,386 c 0,-3.31371 2.6863,-6 6,-6 h 228 c 3.3137,0 6,2.68629 6,6 v 48 c 0,3.31371 -2.6863,6 -6,6 h -228 c -3.3137,0 -6,-2.68629 -6,-6 z"
       fill="none"
       id="path21" />
    <use
       xlink:href="#i"
       transform="translate(1145.5449,410.27629)"
       id="use21" />
    <path
       d="m 1070,386 c 0,-3.31371 2.6863,-6 6,-6 h 228 c 3.3137,0 6,2.68629 6,6 v 48 c 0,3.31371 -2.6863,6 -6,6 h -228 c -3.3137,0 -6,-2.68629 -6,-6 z"
       fill="none"
       id="path22" />
    <use
       xlink:href="#i"
       transform="translate(1185.4807,410.27629)"
       id="use22" />
    <use
       xlink:href="#i"
       transform="translate(1273.0992,409.98574)"
       id="use22-8" />
    <path
       d="m 1000,277.38 c 0,-3.31371 2.6863,-6 6,-6 h 228 c 3.3137,0 6,2.68629 6,6 v 48 c 0,3.31371 -2.6863,6 -6,6 h -228 c -3.3137,0 -6,-2.68629 -6,-6 z"
       fill="none"
       id="path23" />
    <use
       xlink:href="#e"
       transform="translate(1112.5978,356.8912)"
       id="use23" />
    <g
       fill="none"
       id="g25"
       transform="matrix(0.87864545,0,0,1,134.22283,-4)">
      <path
         d="m 1146,500 a 6,6 0 0 1 -6,-6 v -68 a 6,6 0 0 1 6,-6 h 161.47 a 6,6 0 0 1 6,6 v 68 a 6,6 0 0 1 -6,6 z"
         id="path24" />
      <path
         d="m 1313.47,420 c 0,5.52 -4.48,10 -10,10 h -66.74 c -5.52,0 -10,4.48 -10,10 0,-5.52 -4.47,-10 -10,-10 H 1150 c -5.52,0 -10,-4.48 -10,-10"
         stroke="#3a414a"
         stroke-width="2"
         id="path25" />
    </g>
    <path
       d="m 1106.73,436 a 6,6 0 0 1 6,-6 h 228 a 6,6 0 0 1 6,6 v 48 a 6,6 0 0 1 -6,6 h -228 a 6,6 0 0 1 -6,-6 z"
       fill="none"
       id="path26" />
    <g
       id="g26"
       transform="translate(-14,-10)">
      <use
         xlink:href="#f"
         transform="translate(1207.1642,468.08377)"
         id="use26" />
    </g>
    <defs
       id="defs71">
      <path
         d="m 789,20 c -398,0 -667,-293 -667,-764 0,-473 273,-766 655,-766 315,0 558,198 612,487 h -196 c -61,-191 -204,-311 -415,-311 -262,0 -471,207 -471,590 0,380 208,588 482,588 249,0 420,-165 425,-427 H 828 v -166 h 572 v 163 c 0,370 -256,606 -611,606"
         id="j" />
      <path
         d="m 180,0 v -1490 h 510 c 348,0 508,194 508,460 0,198 -88,351 -276,417 L 1256,0 H 1036 L 726,-579 c -117,2 -238,0 -356,1 V 0 Z m 190,-747 h 312 c 235,0 327,-108 327,-283 0,-177 -92,-293 -329,-293 H 370 v 576"
         id="k" />
      <path
         d="M 763,24 C 410,24 180,-200 180,-507 v -983 h 190 v 968 c 0,214 149,370 393,370 243,0 391,-156 391,-370 v -968 h 190 v 983 c 0,307 -230,531 -581,531"
         id="l" />
      <g
         id="a">
        <use
           transform="scale(0.01085069)"
           xlink:href="#j"
           id="use27" />
        <use
           transform="matrix(0.01085069,0,0,0.01085069,16.579861,0)"
           xlink:href="#k"
           id="use28" />
        <use
           transform="matrix(0.01085069,0,0,0.01085069,30.881076,0)"
           xlink:href="#l"
           id="use29" />
      </g>
      <path
         d="M 657,26 C 334,26 133,-140 116,-390 h 195 c 15,169 171,246 346,246 202,0 356,-106 356,-265 5,-203 -294,-238 -475,-293 -239,-73 -380,-191 -380,-389 0,-252 224,-419 512,-419 294,0 499,171 508,396 H 992 c -17,-145 -151,-228 -328,-228 -193,0 -321,102 -321,242 0,156 175,211 284,241 l 149,41 c 160,44 422,134 422,412 0,244 -197,432 -541,432"
         id="m" />
      <path
         d="m 158,418 v -1536 h 174 v 179 h 20 c 37,-59 106,-193 324,-193 279,0 474,222 474,576 0,356 -194,580 -473,580 -213,0 -288,-135 -325,-197 h -14 v 591 z m 492,-555 c 209,0 317,-186 317,-421 0,-232 -105,-413 -317,-413 -206,0 -314,166 -314,413 0,249 111,421 314,421"
         id="n" />
      <path
         d="m 628,24 c -324,0 -524,-230 -524,-574 0,-343 198,-582 503,-582 237,0 487,146 487,559 v 75 H 286 c 9,234 145,362 343,362 132,0 231,-58 273,-172 l 174,48 C 1024,-91 857,24 628,24 Z M 287,-650 h 624 c -17,-190 -120,-322 -304,-322 -192,0 -309,151 -320,322"
         id="o" />
      <path
         d="m 613,24 c -304,0 -509,-231 -509,-576 0,-350 205,-580 509,-580 216,0 392,114 453,309 l -173,49 c -33,-115 -133,-197 -280,-197 -223,0 -326,196 -326,419 0,220 103,415 326,415 150,0 252,-85 285,-206 l 172,49 C 1010,-95 832,24 613,24"
         id="p" />
      <path
         d="M 338,-670 V 0 H 158 v -1490 h 180 v 566 c 73,-149 190,-208 336,-208 226,0 379,139 379,422 V 0 H 872 v -695 c 0,-172 -96,-275 -252,-275 -161,0 -282,109 -282,300"
         id="q" />
      <g
         id="b">
        <use
           transform="scale(0.01085069)"
           xlink:href="#m"
           id="use30" />
        <use
           transform="matrix(0.01085069,0,0,0.01085069,14.257813,0)"
           xlink:href="#n"
           id="use31" />
        <use
           transform="matrix(0.01085069,0,0,0.01085069,27.864583,0)"
           xlink:href="#o"
           id="use32" />
        <use
           transform="matrix(0.01085069,0,0,0.01085069,40.820312,0)"
           xlink:href="#o"
           id="use33" />
        <use
           transform="matrix(0.01085069,0,0,0.01085069,53.776042,0)"
           xlink:href="#p"
           id="use34" />
        <use
           transform="matrix(0.01085069,0,0,0.01085069,66.471354,0)"
           xlink:href="#q"
           id="use35" />
      </g>
      <path
         d="M 370,-1490 V 0 H 180 v -1490 h 190"
         id="r" />
      <path
         d="M 338,-670 V 0 H 158 v -1118 h 173 l 1,207 c 72,-158 192,-221 342,-221 226,0 378,139 378,422 V 0 H 872 v -695 c 0,-172 -96,-275 -252,-275 -161,0 -282,109 -282,300"
         id="s" />
      <path
         d="m 598,-1118 v 154 H 368 v 674 c 0,100 37,144 132,144 23,0 62,-6 92,-12 L 629,-6 C 592,7 541,14 495,14 302,14 188,-93 188,-276 V -964 H 20 v -154 h 168 v -266 h 180 v 266 h 230"
         id="t" />
      <path
         d="M 338,-1490 V 0 H 158 v -1490 h 180"
         id="u" />
      <path
         d="M 158,0 V -1118 H 338 V 0 Z m 91,-1301 c -68,0 -125,-53 -125,-119 0,-66 57,-119 125,-119 69,0 126,53 126,119 0,66 -57,119 -126,119"
         id="v" />
      <path
         d="M 611,442 C 363,442 220,337 151,214 l 146,-94 c 47,65 117,165 314,165 178,0 307,-82 307,-266 v -224 h -17 c -38,64 -109,187 -325,187 -268,0 -472,-195 -472,-546 0,-346 197,-568 476,-568 216,0 288,133 326,193 h 17 v -179 h 175 V 29 c 0,289 -215,413 -487,413 z m -5,-620 c 203,0 314,-146 314,-390 0,-237 -108,-403 -314,-403 -213,0 -319,180 -319,403 0,230 109,390 319,390"
         id="w" />
      <path
         d="M 677,24 C 464,24 389,-111 352,-173 H 332 V 0 H 158 v -1490 h 180 v 551 h 14 c 37,-59 106,-193 324,-193 279,0 474,222 474,576 0,356 -194,580 -473,580 z m -27,-161 c 209,0 317,-186 317,-421 0,-232 -105,-413 -317,-413 -206,0 -314,166 -314,413 0,249 111,421 314,421"
         id="x" />
      <path
         d="M 140,405 186,249 C 306,285 391,268 449,99 L 481,6 54,-1118 h 197 c 107,313 237,620 324,950 87,-331 219,-637 326,-950 h 196 L 606,167 C 538,345 430,426 272,426 208,426 159,414 140,405"
         id="y" />
      <g
         id="c">
        <use
           transform="scale(0.01085069)"
           xlink:href="#r"
           id="use36" />
        <use
           transform="matrix(0.01085069,0,0,0.01085069,5.9678819,0)"
           xlink:href="#s"
           id="use37" />
        <use
           transform="matrix(0.01085069,0,0,0.01085069,19.097222,0)"
           xlink:href="#t"
           id="use38" />
        <use
           transform="matrix(0.01085069,0,0,0.01085069,26.150174,0)"
           xlink:href="#o"
           id="use39" />
        <use
           transform="matrix(0.01085069,0,0,0.01085069,39.105903,0)"
           xlink:href="#u"
           id="use40" />
        <use
           transform="matrix(0.01085069,0,0,0.01085069,44.487847,0)"
           xlink:href="#u"
           id="use41" />
        <use
           transform="matrix(0.01085069,0,0,0.01085069,49.869792,0)"
           xlink:href="#v"
           id="use42" />
        <use
           transform="matrix(0.01085069,0,0,0.01085069,55.251736,0)"
           xlink:href="#w"
           id="use43" />
        <use
           transform="matrix(0.01085069,0,0,0.01085069,68.880208,0)"
           xlink:href="#v"
           id="use44" />
        <use
           transform="matrix(0.01085069,0,0,0.01085069,74.262153,0)"
           xlink:href="#x"
           id="use45" />
        <use
           transform="matrix(0.01085069,0,0,0.01085069,87.868924,0)"
           xlink:href="#v"
           id="use46" />
        <use
           transform="matrix(0.01085069,0,0,0.01085069,93.250868,0)"
           xlink:href="#u"
           id="use47" />
        <use
           transform="matrix(0.01085069,0,0,0.01085069,98.632812,0)"
           xlink:href="#v"
           id="use48" />
        <use
           transform="matrix(0.01085069,0,0,0.01085069,104.01476,0)"
           xlink:href="#t"
           id="use49" />
        <use
           transform="matrix(0.01085069,0,0,0.01085069,111.71875,0)"
           xlink:href="#y"
           id="use50" />
      </g>
      <path
         d="m 180,0 v -1490 h 270 l 367,940 c 28,72 75,218 110,339 35,-117 81,-264 110,-339 l 362,-940 h 271 V 0 h -187 c 2,-448 -5,-837 7,-1287 -157,497 -311,829 -483,1287 H 842 C 666,-458 514,-784 354,-1284 c 12,438 5,843 7,1284 H 180"
         id="z" />
      <path
         d="m 158,0 v -1118 h 174 v 172 h 12 c 41,-113 157,-188 290,-188 26,0 70,2 91,3 v 181 c -11,-2 -60,-10 -108,-10 -161,0 -279,109 -279,260 V 0 H 158"
         id="A" />
      <g
         id="d">
        <use
           transform="scale(0.01085069)"
           xlink:href="#z"
           id="use51" />
        <use
           transform="matrix(0.01085069,0,0,0.01085069,20.073785,0)"
           xlink:href="#o"
           id="use52" />
        <use
           transform="matrix(0.01085069,0,0,0.01085069,33.029514,0)"
           xlink:href="#t"
           id="use53" />
        <use
           transform="matrix(0.01085069,0,0,0.01085069,40.299479,0)"
           xlink:href="#A"
           id="use54" />
        <use
           transform="matrix(0.01085069,0,0,0.01085069,49.012587,0)"
           xlink:href="#v"
           id="use55" />
        <use
           transform="matrix(0.01085069,0,0,0.01085069,54.394531,0)"
           xlink:href="#p"
           id="use56" />
      </g>
      <path
         d="M 653,-1490 V 0 H 466 v -1314 h -10 l -360,267 v -204 l 324,-239 h 233"
         id="B" />
      <path
         d="M 626,20 C 364,20 168,-148 158,-376 h 184 c 12,133 134,229 284,229 180,0 311,-137 311,-326 0,-192 -136,-335 -323,-335 -92,0 -196,33 -255,78 l -178,-22 88,-738 h 784 v 167 H 429 l -51,435 h 8 c 61,-51 160,-87 263,-87 273,0 474,211 474,499 0,286 -210,496 -497,496"
         id="C" />
      <g
         id="e">
        <use
           transform="scale(0.01085069)"
           xlink:href="#B"
           id="use57" />
        <use
           transform="matrix(0.01085069,0,0,0.01085069,9.0386285,0)"
           xlink:href="#C"
           id="use58" />
      </g>
      <path
         d="m 154,0 v -137 l 495,-537 c 165,-179 249,-281 249,-418 0,-156 -121,-253 -280,-253 -170,0 -278,110 -278,278 H 158 c 0,-264 200,-443 465,-443 266,0 455,183 455,416 0,161 -73,288 -336,568 l -326,347 v 12 h 687 V 0 H 154"
         id="D" />
      <path
         d="m 200,0 662,-1311 v -12 H 98 v -167 h 963 v 177 L 400,0 H 200"
         id="E" />
      <g
         id="f">
        <use
           transform="scale(0.01085069)"
           xlink:href="#D"
           id="use59" />
        <use
           transform="matrix(0.01085069,0,0,0.01085069,13.552517,0)"
           xlink:href="#E"
           id="use60" />
        <use
           transform="matrix(0.01085069,0,0,0.01085069,26.5625,0)"
           xlink:href="#E"
           id="use61" />
      </g>
      <path
         d="m 577,24 c -279,0 -473,-224 -473,-580 0,-354 195,-576 474,-576 218,0 287,134 324,193 h 14 v -551 h 180 V 0 H 922 V -173 H 902 C 865,-111 790,24 577,24 Z m 27,-161 c 203,0 314,-172 314,-421 0,-247 -108,-413 -314,-413 -212,0 -317,181 -317,413 0,235 108,421 317,421"
         id="F" />
      <path
         d="m 798,-719 v 166 H 144 v -166 h 654"
         id="G" />
      <path
         d="m 158,0 v -1118 h 175 l 1,205 c 55,-151 181,-225 313,-225 147,0 245,90 285,228 53,-141 190,-228 352,-228 194,0 352,125 352,384 V 0 h -181 v -749 c 0,-161 -105,-225 -225,-225 -151,0 -243,103 -243,244 V 0 H 807 v -767 c 0,-124 -93,-207 -219,-207 -131,0 -250,92 -250,270 V 0 H 158"
         id="H" />
      <path
         d="M 471,26 C 259,26 90,-98 90,-318 c 0,-256 228,-303 435,-329 202,-27 287,-16 287,-108 0,-139 -79,-219 -234,-219 -161,0 -248,86 -283,164 l -173,-57 c 86,-203 278,-265 451,-265 150,0 419,46 419,395 V 0 H 815 V -152 H 803 C 765,-73 660,26 471,26 Z m 31,-159 c 199,0 310,-134 310,-271 v -155 c -30,35 -226,55 -295,64 -131,17 -246,59 -246,186 0,116 97,176 231,176"
         id="I" />
      <path
         d="M 65,0 458,-574 88,-1118 h 210 c 88,136 192,297 267,435 67,-142 176,-302 264,-435 h 206 L 661,-564 1053,0 H 844 C 750,-144 638,-310 557,-458 484,-308 366,-142 273,0 H 65"
         id="J" />
      <g
         id="g">
        <use
           transform="scale(0.01085069)"
           xlink:href="#F"
           id="use62" />
        <use
           transform="matrix(0.01085069,0,0,0.01085069,13.606771,0)"
           xlink:href="#G"
           id="use63" />
        <use
           transform="matrix(0.01085069,0,0,0.01085069,23.828125,0)"
           xlink:href="#H"
           id="use64" />
        <use
           transform="matrix(0.01085069,0,0,0.01085069,43.294271,0)"
           xlink:href="#I"
           id="use65" />
        <use
           transform="matrix(0.01085069,0,0,0.01085069,55.772569,0)"
           xlink:href="#t"
           id="use66" />
        <use
           transform="matrix(0.01085069,0,0,0.01085069,63.042535,0)"
           xlink:href="#A"
           id="use67" />
        <use
           transform="matrix(0.01085069,0,0,0.01085069,71.755642,0)"
           xlink:href="#v"
           id="use68" />
        <use
           transform="matrix(0.01085069,0,0,0.01085069,77.137587,0)"
           xlink:href="#J"
           id="use69" />
      </g>
      <path
         d="M 645,0 H 180 v -1490 h 484 c 435,0 692,280 692,742 0,466 -257,748 -711,748 z M 370,-168 h 263 c 363,0 539,-218 539,-580 0,-358 -176,-574 -521,-574 H 370 v 1154"
         id="K" />
      <g
         id="h">
        <use
           transform="scale(0.01085069)"
           xlink:href="#D"
           id="use70" />
        <use
           transform="matrix(0.01085069,0,0,0.01085069,13.552517,0)"
           xlink:href="#K"
           id="use71" />
      </g>
      <use
         transform="scale(0.01085069)"
         xlink:href="#B"
         id="i" />
    </defs>
    <g
       id="g73"
       clip-path="none">
      <g
         id="g72">
        <use
           xlink:href="#e"
           transform="translate(1242.6958,356.75932)"
           id="use23-2" />
      </g>
    </g>
    <use
       x="0"
       y="0"
       xlink:href="#g72"
       id="use73" />
  </g>
</svg>
